<mxfile host="app.diagrams.net" modified="2023-07-27T19:37:38.392Z" agent="Mozilla/5.0 (Windows NT 10.0; Win64; x64) AppleWebKit/537.36 (KHTML, like Gecko) Chrome/114.0.0.0 Safari/537.36" etag="Yc0hOxlSMU-0_p2XBpVv" version="21.6.1" type="github">
  <diagram name="Page-1" id="GRt-6Is_jpE2JyQATUjo">
    <mxGraphModel dx="1050" dy="581" grid="1" gridSize="10" guides="1" tooltips="1" connect="1" arrows="1" fold="1" page="1" pageScale="1" pageWidth="827" pageHeight="1169" math="0" shadow="0">
      <root>
        <mxCell id="0" />
        <mxCell id="1" parent="0" />
        <mxCell id="6-9cin6j6XxMCS41iD6S-36" style="edgeStyle=orthogonalEdgeStyle;rounded=0;orthogonalLoop=1;jettySize=auto;html=1;entryX=0.5;entryY=0;entryDx=0;entryDy=0;" edge="1" parent="1" source="6-9cin6j6XxMCS41iD6S-37" target="6-9cin6j6XxMCS41iD6S-39">
          <mxGeometry relative="1" as="geometry" />
        </mxCell>
        <mxCell id="6-9cin6j6XxMCS41iD6S-37" value="Start" style="ellipse;whiteSpace=wrap;html=1;" vertex="1" parent="1">
          <mxGeometry x="360" y="80" width="120" height="50" as="geometry" />
        </mxCell>
        <mxCell id="6-9cin6j6XxMCS41iD6S-38" style="edgeStyle=orthogonalEdgeStyle;rounded=0;orthogonalLoop=1;jettySize=auto;html=1;exitX=0.5;exitY=1;exitDx=0;exitDy=0;entryX=0.5;entryY=0;entryDx=0;entryDy=0;" edge="1" parent="1" source="6-9cin6j6XxMCS41iD6S-39" target="6-9cin6j6XxMCS41iD6S-41">
          <mxGeometry relative="1" as="geometry" />
        </mxCell>
        <mxCell id="6-9cin6j6XxMCS41iD6S-39" value="Input center point (xc,yc)&lt;br&gt;&amp;nbsp;and&amp;nbsp; radius (r)" style="shape=parallelogram;perimeter=parallelogramPerimeter;whiteSpace=wrap;html=1;fixedSize=1;" vertex="1" parent="1">
          <mxGeometry x="330" y="160" width="180" height="50" as="geometry" />
        </mxCell>
        <mxCell id="6-9cin6j6XxMCS41iD6S-40" style="edgeStyle=orthogonalEdgeStyle;rounded=0;orthogonalLoop=1;jettySize=auto;html=1;entryX=0.5;entryY=0;entryDx=0;entryDy=0;" edge="1" parent="1" source="6-9cin6j6XxMCS41iD6S-41" target="6-9cin6j6XxMCS41iD6S-44">
          <mxGeometry relative="1" as="geometry" />
        </mxCell>
        <mxCell id="6-9cin6j6XxMCS41iD6S-41" value="Calculate pk = 1 - r&lt;br&gt;assign x = 0,y= r" style="rounded=0;whiteSpace=wrap;html=1;" vertex="1" parent="1">
          <mxGeometry x="330" y="240" width="170" height="60" as="geometry" />
        </mxCell>
        <mxCell id="6-9cin6j6XxMCS41iD6S-43" style="edgeStyle=orthogonalEdgeStyle;rounded=0;orthogonalLoop=1;jettySize=auto;html=1;entryX=0;entryY=0.5;entryDx=0;entryDy=0;exitX=0;exitY=0.5;exitDx=0;exitDy=0;" edge="1" parent="1" source="6-9cin6j6XxMCS41iD6S-44" target="6-9cin6j6XxMCS41iD6S-57">
          <mxGeometry relative="1" as="geometry">
            <Array as="points">
              <mxPoint x="90" y="380" />
              <mxPoint x="90" y="870" />
            </Array>
          </mxGeometry>
        </mxCell>
        <mxCell id="6-9cin6j6XxMCS41iD6S-69" style="edgeStyle=orthogonalEdgeStyle;rounded=0;orthogonalLoop=1;jettySize=auto;html=1;entryX=0.5;entryY=0;entryDx=0;entryDy=0;entryPerimeter=0;" edge="1" parent="1" source="6-9cin6j6XxMCS41iD6S-44" target="6-9cin6j6XxMCS41iD6S-50">
          <mxGeometry relative="1" as="geometry" />
        </mxCell>
        <mxCell id="6-9cin6j6XxMCS41iD6S-44" value="if x&amp;lt;=y&amp;nbsp;" style="rhombus;whiteSpace=wrap;html=1;" vertex="1" parent="1">
          <mxGeometry x="180" y="340" width="90" height="80" as="geometry" />
        </mxCell>
        <mxCell id="6-9cin6j6XxMCS41iD6S-48" style="edgeStyle=orthogonalEdgeStyle;rounded=0;orthogonalLoop=1;jettySize=auto;html=1;entryX=0.5;entryY=0;entryDx=0;entryDy=0;" edge="1" parent="1" source="6-9cin6j6XxMCS41iD6S-50" target="6-9cin6j6XxMCS41iD6S-52">
          <mxGeometry relative="1" as="geometry" />
        </mxCell>
        <mxCell id="6-9cin6j6XxMCS41iD6S-75" value="" style="edgeStyle=orthogonalEdgeStyle;rounded=0;orthogonalLoop=1;jettySize=auto;html=1;" edge="1" parent="1" source="6-9cin6j6XxMCS41iD6S-50" target="6-9cin6j6XxMCS41iD6S-51">
          <mxGeometry relative="1" as="geometry" />
        </mxCell>
        <mxCell id="6-9cin6j6XxMCS41iD6S-50" value="if pk&amp;lt;0" style="rhombus;whiteSpace=wrap;html=1;" vertex="1" parent="1">
          <mxGeometry x="300" y="400" width="90" height="50" as="geometry" />
        </mxCell>
        <mxCell id="6-9cin6j6XxMCS41iD6S-74" style="edgeStyle=orthogonalEdgeStyle;rounded=0;orthogonalLoop=1;jettySize=auto;html=1;entryX=0.332;entryY=0.14;entryDx=0;entryDy=0;entryPerimeter=0;" edge="1" parent="1" source="6-9cin6j6XxMCS41iD6S-51" target="6-9cin6j6XxMCS41iD6S-54">
          <mxGeometry relative="1" as="geometry" />
        </mxCell>
        <mxCell id="6-9cin6j6XxMCS41iD6S-51" value="Calculate&amp;nbsp;x = x+1&lt;br&gt;pk = pk+2x+1" style="rounded=0;whiteSpace=wrap;html=1;" vertex="1" parent="1">
          <mxGeometry x="270" y="480" width="160" height="70" as="geometry" />
        </mxCell>
        <mxCell id="6-9cin6j6XxMCS41iD6S-73" style="edgeStyle=orthogonalEdgeStyle;rounded=0;orthogonalLoop=1;jettySize=auto;html=1;entryX=0.773;entryY=0.54;entryDx=0;entryDy=0;entryPerimeter=0;" edge="1" parent="1" source="6-9cin6j6XxMCS41iD6S-52" target="6-9cin6j6XxMCS41iD6S-54">
          <mxGeometry relative="1" as="geometry" />
        </mxCell>
        <mxCell id="6-9cin6j6XxMCS41iD6S-52" value="Calculate&amp;nbsp;x = x+1&lt;br&gt;y = y -1&lt;br style=&quot;border-color: var(--border-color);&quot;&gt;pk = pk+2x+1-2y" style="rounded=0;whiteSpace=wrap;html=1;" vertex="1" parent="1">
          <mxGeometry x="520" y="490" width="160" height="70" as="geometry" />
        </mxCell>
        <mxCell id="6-9cin6j6XxMCS41iD6S-54" value="" style="line;strokeWidth=2;html=1;" vertex="1" parent="1">
          <mxGeometry x="160" y="590" width="570" height="10" as="geometry" />
        </mxCell>
        <mxCell id="6-9cin6j6XxMCS41iD6S-55" style="edgeStyle=orthogonalEdgeStyle;rounded=0;orthogonalLoop=1;jettySize=auto;html=1;endArrow=none;endFill=0;" edge="1" parent="1">
          <mxGeometry relative="1" as="geometry">
            <Array as="points">
              <mxPoint x="780" y="783" />
              <mxPoint x="780" y="320" />
              <mxPoint x="230" y="320" />
            </Array>
            <mxPoint x="525.8666666666666" y="783" as="sourcePoint" />
            <mxPoint x="220" y="320" as="targetPoint" />
          </mxGeometry>
        </mxCell>
        <mxCell id="6-9cin6j6XxMCS41iD6S-56" value="x=x+xc&lt;br&gt;y= y +yc&lt;br&gt;Print x and y" style="shape=parallelogram;perimeter=parallelogramPerimeter;whiteSpace=wrap;html=1;fixedSize=1;" vertex="1" parent="1">
          <mxGeometry x="380" y="750" width="160" height="75" as="geometry" />
        </mxCell>
        <mxCell id="6-9cin6j6XxMCS41iD6S-57" value="Stop" style="ellipse;whiteSpace=wrap;html=1;" vertex="1" parent="1">
          <mxGeometry x="400" y="850" width="120" height="40" as="geometry" />
        </mxCell>
        <mxCell id="6-9cin6j6XxMCS41iD6S-59" value="" style="endArrow=classic;html=1;rounded=0;exitX=0.544;exitY=1;exitDx=0;exitDy=0;exitPerimeter=0;" edge="1" parent="1" source="6-9cin6j6XxMCS41iD6S-54" target="6-9cin6j6XxMCS41iD6S-71">
          <mxGeometry width="50" height="50" relative="1" as="geometry">
            <mxPoint x="230" y="670" as="sourcePoint" />
            <mxPoint x="229.5" y="724" as="targetPoint" />
            <Array as="points">
              <mxPoint x="470" y="590" />
            </Array>
          </mxGeometry>
        </mxCell>
        <mxCell id="6-9cin6j6XxMCS41iD6S-62" value="" style="endArrow=classic;html=1;rounded=0;" edge="1" parent="1">
          <mxGeometry width="50" height="50" relative="1" as="geometry">
            <mxPoint x="460" y="825" as="sourcePoint" />
            <mxPoint x="460" y="850" as="targetPoint" />
          </mxGeometry>
        </mxCell>
        <mxCell id="6-9cin6j6XxMCS41iD6S-63" value="No" style="text;html=1;align=center;verticalAlign=middle;resizable=0;points=[];autosize=1;strokeColor=none;fillColor=none;" vertex="1" parent="1">
          <mxGeometry x="120" y="350" width="40" height="30" as="geometry" />
        </mxCell>
        <mxCell id="6-9cin6j6XxMCS41iD6S-64" value="Yes" style="text;html=1;align=center;verticalAlign=middle;resizable=0;points=[];autosize=1;strokeColor=none;fillColor=none;" vertex="1" parent="1">
          <mxGeometry x="280" y="350" width="40" height="30" as="geometry" />
        </mxCell>
        <mxCell id="6-9cin6j6XxMCS41iD6S-65" value="Yes" style="text;html=1;align=center;verticalAlign=middle;resizable=0;points=[];autosize=1;strokeColor=none;fillColor=none;" vertex="1" parent="1">
          <mxGeometry x="270" y="440" width="40" height="30" as="geometry" />
        </mxCell>
        <mxCell id="6-9cin6j6XxMCS41iD6S-66" value="No" style="text;html=1;align=center;verticalAlign=middle;resizable=0;points=[];autosize=1;strokeColor=none;fillColor=none;" vertex="1" parent="1">
          <mxGeometry x="390" y="390" width="40" height="30" as="geometry" />
        </mxCell>
        <mxCell id="6-9cin6j6XxMCS41iD6S-77" style="edgeStyle=orthogonalEdgeStyle;rounded=0;orthogonalLoop=1;jettySize=auto;html=1;entryX=0.567;entryY=-0.003;entryDx=0;entryDy=0;entryPerimeter=0;" edge="1" parent="1" source="6-9cin6j6XxMCS41iD6S-71" target="6-9cin6j6XxMCS41iD6S-56">
          <mxGeometry relative="1" as="geometry" />
        </mxCell>
        <mxCell id="6-9cin6j6XxMCS41iD6S-71" value="others point of symmetry&lt;br&gt;(x,-y),(-x,-y),(-x,y)&lt;br&gt;(y,x),(y,-x),(-y,x)&lt;br&gt;(-y,-x)" style="rounded=0;whiteSpace=wrap;html=1;" vertex="1" parent="1">
          <mxGeometry x="390" y="630" width="160" height="80" as="geometry" />
        </mxCell>
      </root>
    </mxGraphModel>
  </diagram>
</mxfile>
